<svg xmlns="http://www.w3.org/2000/svg" x="0px" y="0px"
     width="60" height="60"
     viewBox="0 0 172 172"
     style=" fill:#000000;">
  <g transform="">
    <g fill="none" fill-rule="nonzero" stroke="none" stroke-width="1" stroke-linecap="butt" stroke-linejoin="miter"
       stroke-miterlimit="10" stroke-dasharray="" stroke-dashoffset="0" font-family="none" font-weight="none"
       font-size="none" text-anchor="none" style="mix-blend-mode: normal">
      <path d="M0,172v-172h172v172z" fill="none"></path>
      <path
        d="M86,172c-47.49649,0 -86,-38.50351 -86,-86v0c0,-47.49649 38.50351,-86 86,-86h0c47.49649,0 86,38.50351 86,86v0c0,47.49649 -38.50351,86 -86,86z"
        fill="#F0F6B6"></path>
      <g fill="#000000">
        <path
          d="M85.14,37.668c-26.20178,0 -47.472,21.27024 -47.472,47.472c0,26.20176 21.27022,47.472 47.472,47.472c26.20178,0 47.472,-21.27024 47.472,-47.472c0,-26.20176 -21.27022,-47.472 -47.472,-47.472zM85.14,40.42c1.13632,0 2.42406,1.01831 3.68725,3.22231c1.26319,2.204 2.43995,5.48166 3.42656,9.55137c0.38287,1.57931 0.72728,3.3106 1.05081,5.11431h-16.32925c0.32353,-1.80372 0.66794,-3.535 1.05081,-5.11431c0.98661,-4.06972 2.16337,-7.34737 3.42656,-9.55137c1.2632,-2.204 2.55093,-3.22231 3.68725,-3.22231zM82.04131,40.53825c-0.63463,0.63968 -1.22814,1.45539 -1.78181,2.42144c-1.37073,2.39163 -2.5662,5.76123 -3.57169,9.90881c-0.40756,1.68116 -0.77277,3.51977 -1.11263,5.4395h-26.22194c7.57462,-10.09064 19.3213,-16.85567 32.68806,-17.76975zM88.37037,40.66456c7.19195,1.07857 13.6759,5.71796 18.58406,12.76025c5.63322,8.08262 9.14556,19.30596 9.14556,31.71519c0,9.47712 -2.07225,18.23315 -5.54969,25.456h-33.82487c-1.16817,-7.05883 -1.86367,-15.58306 -1.89738,-24.768h17.87994c0.24812,0.00351 0.4789,-0.12685 0.60399,-0.34116c0.12508,-0.21431 0.12508,-0.47937 0,-0.69368c-0.12508,-0.21431 -0.35587,-0.34467 -0.60399,-0.34116h-17.87994c0.0337,-9.18494 0.72921,-17.70917 1.89738,-24.768h16.82912c1.19761,7.23673 1.90544,16.00586 1.90544,25.456c0,8.52652 -0.57485,16.49932 -1.56681,23.29256c-0.03556,0.24341 0.06146,0.4873 0.25449,0.63979c0.19304,0.15248 0.45276,0.19039 0.68133,0.09944c0.22857,-0.09095 0.39124,-0.29694 0.42674,-0.54036c1.00324,-6.87044 1.58025,-14.90327 1.58025,-23.49144c0,-9.42 -0.69299,-18.17073 -1.88394,-25.456h11.51594c0.24812,0.00351 0.4789,-0.12685 0.60399,-0.34116c0.12508,-0.21431 0.12508,-0.47937 0,-0.69368c-0.12508,-0.21431 -0.35587,-0.34467 -0.60399,-0.34116h-11.76319c-0.33985,-1.91973 -0.70507,-3.75834 -1.11263,-5.4395c-1.00549,-4.14758 -2.20096,-7.51719 -3.57169,-9.90881c-0.51561,-0.89963 -1.06455,-1.67595 -1.65013,-2.29513zM96.148,41.78525c10.05008,2.54019 18.73933,8.47725 24.77875,16.52275h-2.07475c-0.24812,-0.00351 -0.4789,0.12685 -0.60399,0.34116c-0.12508,0.21431 -0.12508,0.47937 0,0.69368c0.12508,0.21431 0.35587,0.34467 0.60399,0.34116h3.05837c4.88638,7.04805 7.79176,15.56778 7.93081,24.768h-6.81281h-2.80037c-0.06905,-0.00134 -0.1379,0.00772 -0.20425,0.02687c-0.04379,0.01366 -0.0861,0.03167 -0.12631,0.05375c-0.02028,0.01065 -0.04001,0.02231 -0.05913,0.03494c-0.03862,0.025 -0.07463,0.05381 -0.1075,0.086c-0.01607,0.01625 -0.03132,0.03329 -0.04569,0.05106c-0.01438,0.01812 -0.02783,0.03696 -0.04031,0.05644c-0.02547,0.03807 -0.04708,0.07858 -0.0645,0.12094c-0.02595,0.06351 -0.04225,0.13054 -0.04837,0.19887c-0.00964,0.11494 0.00976,0.23046 0.05644,0.33594c0.01828,0.04247 0.04079,0.08298 0.06719,0.12094c0.01343,0.01862 0.02778,0.03656 0.043,0.05375c0.01531,0.01692 0.03146,0.03306 0.04838,0.04837c0.01625,0.01607 0.03329,0.03132 0.05106,0.04569c0.01818,0.01346 0.03702,0.02602 0.05644,0.03763c0.01999,0.0127 0.04062,0.02436 0.06181,0.03494c0.04127,0.0204 0.08449,0.03661 0.129,0.04837c0.05968,0.01532 0.12115,0.02255 0.18275,0.0215h2.752h6.86119c-0.13905,9.20022 -3.04443,17.71995 -7.93081,24.768h-9.81744c3.39918,-7.30389 5.38306,-16.04631 5.38306,-25.456c0,-12.66837 -3.57186,-24.15065 -9.39281,-32.50263c-3.31839,-4.76127 -7.38535,-8.50743 -11.93519,-10.85212zM73.08387,42.47863c-0.13082,-0.00191 -0.25947,0.03351 -0.37087,0.10212c-0.73097,0.43379 -1.4488,0.90044 -2.15269,1.40825c-0.30873,0.2219 -0.37912,0.65205 -0.15722,0.96078c0.2219,0.30873 0.65205,0.37912 0.96078,0.15722c0.66936,-0.4829 1.35324,-0.92993 2.05056,-1.34375c0.26835,-0.15412 0.4008,-0.46843 0.32368,-0.76813c-0.07712,-0.2997 -0.34483,-0.51104 -0.65424,-0.51649zM67.67125,46.60394c-0.17835,0.00213 -0.34889,0.07344 -0.47569,0.19887c-0.91585,0.87237 -1.80277,1.80449 -2.64987,2.80306c-0.24639,0.29017 -0.21089,0.72514 0.07928,0.97153c0.29017,0.24639 0.72514,0.21089 0.97153,-0.07928c0.8151,-0.96085 1.66654,-1.86156 2.54775,-2.70094c0.20873,-0.193 0.27728,-0.49449 0.17252,-0.75876c-0.10476,-0.26427 -0.36125,-0.43692 -0.64552,-0.43449zM62.952,52.10794c-0.22756,-0.0009 -0.44085,0.11078 -0.56975,0.29831c-0.93413,1.3209 -1.81857,2.71615 -2.63644,4.1925c-0.18405,0.33248 -0.06373,0.7512 0.26875,0.93525c0.33248,0.18405 0.7512,0.06373 0.93525,-0.26875c0.79205,-1.42976 1.64885,-2.78101 2.55581,-4.0635c0.15253,-0.2089 0.17501,-0.48569 0.05821,-0.71647c-0.11681,-0.23078 -0.35317,-0.37656 -0.61183,-0.37734zM114.724,58.308c-0.24812,-0.00351 -0.4789,0.12685 -0.60399,0.34116c-0.12508,0.21431 -0.12508,0.47937 0,0.69368c0.12508,0.21431 0.35587,0.34467 0.60399,0.34116h1.376c0.24812,0.00351 0.4789,-0.12685 0.60399,-0.34116c0.12508,-0.21431 0.12508,-0.47937 0,-0.69368c-0.12508,-0.21431 -0.35587,-0.34467 -0.60399,-0.34116zM48.36963,59.684h26.95831c-1.16159,7.10566 -1.84277,15.61281 -1.87588,24.768h-19.20487c0.09269,-8.48481 1.76716,-16.41685 4.69506,-23.11787c0.11243,-0.22755 0.09046,-0.49851 -0.05716,-0.70498c-0.14762,-0.20646 -0.39691,-0.3149 -0.64859,-0.28212c-0.25168,0.03278 -0.46488,0.20145 -0.55469,0.43884c-3.00856,6.88562 -4.71806,14.99706 -4.81063,23.66613h-12.43237c0.13905,-9.20022 3.04443,-17.71995 7.93081,-24.768zM99.588,84.452c-0.24812,-0.00351 -0.4789,0.12685 -0.60399,0.34116c-0.12508,0.21431 -0.12508,0.47937 0,0.69368c0.12508,0.21431 0.35587,0.34467 0.60399,0.34116h6.88c0.24812,0.00351 0.4789,-0.12685 0.60399,-0.34116c0.12508,-0.21431 0.12508,-0.47937 0,-0.69368c-0.12508,-0.21431 -0.35587,-0.34467 -0.60399,-0.34116zM110.596,84.452c-0.24812,-0.00351 -0.4789,0.12685 -0.60399,0.34116c-0.12508,0.21431 -0.12508,0.47937 0,0.69368c0.12508,0.21431 0.35587,0.34467 0.60399,0.34116h2.752c0.24812,0.00351 0.4789,-0.12685 0.60399,-0.34116c0.12508,-0.21431 0.12508,-0.47937 0,-0.69368c-0.12508,-0.21431 -0.35587,-0.34467 -0.60399,-0.34116zM40.43881,85.828h12.41356c0.09589,9.1416 2.02062,17.647 5.33469,24.768h-9.81744c-4.88638,-7.04805 -7.79176,-15.56778 -7.93081,-24.768zM54.22837,85.828h19.22369c0.03311,9.15519 0.71429,17.66234 1.87588,24.768h-15.59825c-3.39094,-7.04319 -5.4023,-15.56071 -5.50131,-24.768zM49.35325,111.972h9.58094c1.00368,1.98889 2.05274,3.93467 3.26263,5.67063c3.33891,4.79072 7.43824,8.53731 12.02387,10.87094c-10.08718,-2.52776 -18.81048,-8.47269 -24.86744,-16.54156zM60.51981,111.972h15.05537c0.33985,1.91973 0.70507,3.75834 1.11263,5.4395c1.00549,4.14758 2.20096,7.51719 3.57169,9.90881c0.51561,0.89963 1.06455,1.67595 1.65013,2.29513c-7.19195,-1.07857 -13.6759,-5.71796 -18.58406,-12.76025c-1.03846,-1.49 -1.92014,-3.19199 -2.80575,-4.88319zM76.97537,111.972h32.78481c-0.8856,1.6912 -1.76728,3.39318 -2.80575,4.88319c-4.91125,7.04672 -11.40014,11.68818 -18.5975,12.76294c0.34538,-0.36306 0.67663,-0.77547 0.99437,-1.23625c1.20545,-1.74812 2.27532,-4.20657 3.22231,-7.26162c0.1128,-0.3629 -0.08994,-0.74854 -0.45284,-0.86134c-0.3629,-0.1128 -0.74854,0.08994 -0.86134,0.45284c-0.92162,2.9732 -1.96326,5.32993 -3.03956,6.89075c-1.0763,1.56082 -2.1257,2.2575 -3.07987,2.2575c-1.13632,0 -2.42406,-1.01831 -3.68725,-3.22231c-1.26319,-2.204 -2.43995,-5.48166 -3.42656,-9.55137c-0.38287,-1.57931 -0.72728,-3.3106 -1.05081,-5.11431zM111.34581,111.972h9.58094c-6.05809,8.07038 -14.78324,14.0173 -24.87281,16.54425c4.58802,-2.33268 8.68898,-6.08096 12.02925,-10.87363c1.20988,-1.73596 2.25895,-3.68174 3.26263,-5.67063zM93.62175,113.33725c-0.32737,0.00622 -0.60501,0.24227 -0.66381,0.56437c-0.18964,0.94545 -0.3891,1.84855 -0.59663,2.72781c-0.06568,0.24233 0.00585,0.50121 0.18664,0.67543c0.18079,0.17423 0.44212,0.23615 0.68187,0.16157c0.23974,-0.07459 0.41983,-0.27384 0.46987,-0.51988c0.21078,-0.89303 0.41448,-1.8145 0.60737,-2.77619c0.04435,-0.20547 -0.00766,-0.41995 -0.14119,-0.58228c-0.13354,-0.16234 -0.33395,-0.25473 -0.54412,-0.25084z"></path>
      </g>
    </g>
  </g>
</svg>
