<svg xmlns="http://www.w3.org/2000/svg" x="0px" y="0px"
     width="80" height="80"
     viewBox="0 0 172 172"
     style=" fill:#000000;">
  <g transform="translate(-25.8,-25.8) scale(1.3,1.3)">
    <g fill="none" fill-rule="nonzero" stroke="none" stroke-width="1" stroke-linecap="butt" stroke-linejoin="miter"
       stroke-miterlimit="10" stroke-dasharray="" stroke-dashoffset="0" font-family="none" font-weight="none"
       font-size="none" text-anchor="none" style="mix-blend-mode: normal">
      <path d="M0,172v-172h172v172z" fill="none"></path>
      <g fill="#ffffff">
        <path
          d="M86,17.0925l-0.86,0.215c0,0 -10.25281,2.59344 -22.2525,5.16c-11.99969,2.56656 -26.015,5.0525 -31.9275,5.0525h-3.44v68.8c0,22.06438 14.7275,38.44469 28.9175,49.1275c14.19,10.68281 28.38,16.0175 28.38,16.0175l1.1825,0.43l1.1825,-0.43c0,0 14.17656,-5.2675 28.38,-15.91c14.20344,-10.6425 28.9175,-27.02281 28.9175,-49.235v-68.8h-3.44c-5.9125,0 -19.92781,-2.48594 -31.9275,-5.0525c-11.99969,-2.56656 -22.2525,-5.16 -22.2525,-5.16zM86,24.1875c0.7525,0.18813 10.05125,2.44563 21.715,4.945c10.73656,2.29781 21.99719,4.43438 29.885,4.945v62.2425c0,19.16188 -12.80594,33.76844 -26.1225,43.7525c-12.3625,9.25844 -23.77094,13.74656 -25.4775,14.405c-1.70656,-0.67187 -13.10156,-5.21375 -25.4775,-14.5125c-13.33,-10.02437 -26.1225,-24.65781 -26.1225,-43.645v-62.2425c7.88781,-0.51062 19.14844,-2.64719 29.885,-4.945c11.66375,-2.49937 20.9625,-4.75687 21.715,-4.945zM86,31.2825l-0.86,0.215c-8.385,2.02906 -26.7675,6.32906 -40.9575,8.4925l-2.9025,0.43v55.9c0,13.78688 8.0625,24.94 17.3075,33.2175c9.245,8.2775 19.82031,13.88094 25.9075,16.77l1.505,0.7525l1.505,-0.7525c6.11406,-2.88906 16.6625,-8.4925 25.9075,-16.77c9.245,-8.2775 17.3075,-19.44406 17.3075,-33.2175v-55.9l-2.9025,-0.43c-14.17656,-2.16344 -32.5725,-6.46344 -40.9575,-8.4925zM86,38.3775c8.0625,1.94844 24.10688,5.45563 37.84,7.74v0.1075l-75.68,50.4175c0,-0.1075 0,-0.215 0,-0.3225v-50.2025c13.73313,-2.28437 29.7775,-5.79156 37.84,-7.74zM123.84,54.61v14.62l-69.015,46.01c-2.44562,-3.39969 -4.34031,-6.96062 -5.4825,-10.8575c-0.01344,-0.02687 0.01344,-0.08062 0,-0.1075zM65.36,56.76l-6.88,8.6l6.88,8.6l6.88,-8.6zM123.84,77.5075v18.8125c0,11.05906 -6.61125,20.49219 -15.05,28.0575c-7.86094,7.04125 -16.90437,11.95938 -22.79,14.835c-5.87219,-2.86219 -14.92906,-7.68625 -22.79,-14.7275c-1.38406,-1.23625 -2.71437,-2.52625 -3.9775,-3.87zM106.64,98.04l-6.88,8.6l6.88,8.6l6.88,-8.6z"></path>
      </g>
    </g>
  </g>
</svg>
