<svg width="80" height="80" viewBox="0 0 80 80" fill="none" xmlns="http://www.w3.org/2000/svg">
<path d="M-7.62939e-06 40C-7.62939e-06 62.0914 17.9086 80 40 80C62.0914 80 80 62.0914 80 40C80 17.9086 62.0914 0 40 0C17.9086 0 -7.62939e-06 17.9086 -7.62939e-06 40Z" fill="#F7FAFC"/>
<path d="M9.89691 40C9.89691 56.6255 23.3745 70.1031 40 70.1031C56.6255 70.1031 70.1031 56.6255 70.1031 40C70.1031 23.3745 56.6255 9.89691 40 9.89691C23.3745 9.89691 9.89691 23.3745 9.89691 40Z" fill="white"/>
<path fill-rule="evenodd" clip-rule="evenodd" d="M40.1215 55.9956C40.5708 55.9687 41.0116 55.7671 41.3352 55.3908L53.5677 41.1685C54.2038 40.4291 54.1292 39.3061 53.4015 38.6601C52.6736 38.0141 51.568 38.0897 50.9321 38.8291L41.7488 49.506V25.7778C41.7488 24.7959 40.9653 24 39.9988 24C39.0324 24 38.2488 24.7959 38.2488 25.7778V49.4731L29.0661 38.8272C28.4293 38.0888 27.3235 38.0146 26.5966 38.6617C25.8698 39.3087 25.7969 40.432 26.4339 41.1705L38.5433 55.2096C38.8572 55.6861 39.3919 56 39.9988 56C40.0401 56 40.0809 55.9985 40.1215 55.9956Z" fill="#63B3ED"/>
</svg>
