<svg width="81" height="80" viewBox="0 0 81 80" fill="none" xmlns="http://www.w3.org/2000/svg">
<g clip-path="url(#clip0)">
<path d="M45.2074 31.25V26C50.9842 23.5625 53.6214 17 51.2353 11.25C48.7865 5.50001 42.1935 2.87501 36.4167 5.25001C30.64 7.62501 28.0028 14.25 30.3888 20C31.5191 22.6875 33.7167 24.875 36.4167 26V31.25H38.9284V26.6875C40.1842 26.9375 41.44 26.9375 42.6958 26.6875V31.25H45.2074ZM40.8121 24.375C36.4167 24.375 32.7121 21.1875 32.147 16.875H32.6493C33.34 16.875 33.9051 16.3125 33.9051 15.625C33.9051 14.9375 33.34 14.375 32.6493 14.375H32.147C32.3353 12.9375 32.9005 11.5625 33.7795 10.375L34.1563 10.75C34.6586 11.25 35.4121 11.25 35.9144 10.75C36.4167 10.25 36.4167 9.50001 35.9144 9.00001L35.5377 8.62501C36.7307 7.75001 38.1121 7.18751 39.5563 7.00001V7.50001C39.5563 8.18751 40.1214 8.75001 40.8121 8.75001C41.5028 8.75001 42.0679 8.18751 42.0679 7.50001V7.00001C43.5121 7.18751 44.8935 7.75001 46.0865 8.62501L45.7098 9.00001C45.2074 9.50001 45.2074 10.25 45.7098 10.75C46.2121 11.25 46.9656 11.25 47.4679 10.75L47.8446 10.375C48.7237 11.5625 49.2888 12.9375 49.4772 14.375H48.9749C48.2842 14.375 47.7191 14.9375 47.7191 15.625C47.7191 16.3125 48.2842 16.875 48.9749 16.875H49.4772C48.9121 21.1875 45.2074 24.375 40.8121 24.375Z" fill="white"/>
<path d="M77.8616 53.75H77.2337V46.875C77.2337 41 72.4616 36.25 66.5593 36.25H60.2803V38.75H66.5593C71.0803 38.75 74.7221 42.375 74.7221 46.875V53.75H65.9314V51.25C65.9314 49.1875 64.2361 47.5 62.164 47.5H60.2803V50H62.164C62.8547 50 63.4198 50.5625 63.4198 51.25V53.75H62.7919C61.0337 53.75 59.6523 55.125 59.6523 56.875V60.625C59.6523 62.375 61.0337 63.75 62.7919 63.75H63.4198V70H62.7919C61.0337 70 59.6523 71.375 59.6523 73.125V76.875C59.6523 78.625 61.0337 80 62.7919 80H77.8616C79.6198 80 81.0012 78.625 81.0012 76.875V73.125C81.0012 71.375 79.6198 70 77.8616 70H77.2337V63.75H77.8616C79.6198 63.75 81.0012 62.375 81.0012 60.625V56.875C81.0012 55.125 79.6198 53.75 77.8616 53.75ZM77.8616 72.5C78.2384 72.5 78.4896 72.75 78.4896 73.125V76.875C78.4896 77.25 78.2384 77.5 77.8616 77.5H62.7919C62.4151 77.5 62.164 77.25 62.164 76.875V73.125C62.164 72.75 62.4151 72.5 62.7919 72.5H77.8616ZM65.9314 70V63.75H74.7221V70H65.9314ZM78.4896 60.625C78.4896 61 78.2384 61.25 77.8616 61.25H62.7919C62.4151 61.25 62.164 61 62.164 60.625V56.875C62.164 56.5 62.4151 56.25 62.7919 56.25H77.8616C78.2384 56.25 78.4896 56.5 78.4896 56.875V60.625Z" fill="white"/>
<path d="M3.76746 26.25H4.39537V39.375C4.39537 45.25 9.16747 50 15.0698 50H21.3489V47.5H15.0698C10.5489 47.5 6.907 43.875 6.907 39.375V26.25H15.6977V35C15.6977 37.0625 17.393 38.75 19.4651 38.75H21.3489V36.25H19.4651C18.7744 36.25 18.2093 35.6875 18.2093 35V26.25H18.8372C20.5954 26.25 21.9768 24.875 21.9768 23.125V19.375C21.9768 17.625 20.5954 16.25 18.8372 16.25H18.2093V10H18.8372C20.5954 10 21.9768 8.625 21.9768 6.875V3.125C21.9768 1.375 20.5954 0 18.8372 0H3.76746C2.00933 0 0.62793 1.375 0.62793 3.125V6.875C0.62793 8.625 2.00933 10 3.76746 10H4.39537V16.25H3.76746C2.00933 16.25 0.62793 17.625 0.62793 19.375V23.125C0.62793 24.875 2.00933 26.25 3.76746 26.25ZM3.76746 7.5C3.39072 7.5 3.13956 7.25 3.13956 6.875V3.125C3.13956 2.75 3.39072 2.5 3.76746 2.5H18.8372C19.214 2.5 19.4651 2.75 19.4651 3.125V6.875C19.4651 7.25 19.214 7.5 18.8372 7.5H3.76746ZM15.6977 10V16.25H6.907V10H15.6977ZM3.13956 19.375C3.13956 19 3.39072 18.75 3.76746 18.75H18.8372C19.214 18.75 19.4651 19 19.4651 19.375V23.125C19.4651 23.5 19.214 23.75 18.8372 23.75H3.76746C3.39072 23.75 3.13956 23.5 3.13956 23.125V19.375Z" fill="white"/>
<path d="M3.13953 78.75H6.90698C8.66512 78.75 10.0465 77.375 10.0465 75.625V75H37.0465C42.9488 75 47.7209 70.25 47.7209 64.375V52.5H49.0395C49.3535 53.625 50.2953 54.375 51.4884 54.375H55.2558C56.6372 54.375 57.7674 53.25 57.7674 51.875V34.375C57.7674 33 56.6372 31.875 55.2558 31.875H51.4884C50.3581 31.875 49.3535 32.625 49.0395 33.75H32.5884C32.2744 32.625 31.3326 31.875 30.1395 31.875H26.3721C24.9907 31.875 23.8605 33 23.8605 34.375V51.875C23.8605 53.25 24.9907 54.375 26.3721 54.375H30.1395C31.2698 54.375 32.2744 53.625 32.5884 52.5H33.907V60C33.907 60.6875 33.3419 61.25 32.6512 61.25H10.0465V60.625C10.0465 58.875 8.66512 57.5 6.90698 57.5H3.13953C1.3814 57.5 0 58.875 0 60.625V75.625C0 77.375 1.3814 78.75 3.13953 78.75ZM51.4884 34.375H55.2558V51.875H51.4884V34.375ZM26.3721 51.875V34.375H30.1395V51.875H26.3721ZM32.6512 50V36.25H48.9767V50H32.6512ZM10.0465 63.75H32.6512C34.7233 63.75 36.4186 62.0625 36.4186 60V52.5H45.2093V64.375C45.2093 68.875 41.5674 72.5 37.0465 72.5H10.0465V63.75ZM2.51163 60.625C2.51163 60.25 2.76279 60 3.13953 60H6.90698C7.28372 60 7.53488 60.25 7.53488 60.625V75.625C7.53488 76 7.28372 76.25 6.90698 76.25H3.13953C2.76279 76.25 2.51163 76 2.51163 75.625V60.625Z" fill="white"/>
<path d="M40.8123 38.75C37.9867 38.75 35.7891 40.6875 35.7891 43.125C35.7891 45.5625 37.9867 47.5 40.8123 47.5C43.6379 47.5 45.8356 45.5625 45.8356 43.125C45.8356 40.6875 43.6379 38.75 40.8123 38.75ZM40.8123 45C39.4309 45 38.3007 44.1875 38.3007 43.125C38.3007 42.0625 39.4309 41.25 40.8123 41.25C42.1937 41.25 43.3239 42.0625 43.3239 43.125C43.3239 44.1875 42.1937 45 40.8123 45Z" fill="white"/>
</g>
<defs>
<clipPath id="clip0">
<rect width="81" height="80" fill="white"/>
</clipPath>
</defs>
</svg>
