<svg width="80" height="80" viewBox="0 0 80 80" fill="none" xmlns="http://www.w3.org/2000/svg">
<g clip-path="url(#clip0)">
<path d="M1.25 80.0005H78.75C79.5 80.0005 80 79.5005 80 78.7505V67.5005C80 66.7505 79.5 66.2505 78.75 66.2505H69.375V61.6255H73.75C74.5 61.6255 75 61.1255 75 60.3755V47.7505C75 47.0005 74.5 46.5005 73.75 46.5005H69.5V31.2505H73.75C74.5 31.2505 75 30.7505 75 30.0005V17.3755C75 16.6255 74.5 16.1255 73.75 16.1255H69.5V6.25049C69.5 5.87549 69.375 5.50049 69 5.25049L63.125 0.250488C62.625 -0.124512 62 -0.124512 61.5 0.250488L55.625 5.25049C55.375 5.50049 55.125 5.87549 55.125 6.25049V16.1255H47.125V6.25049C47.125 5.87549 47 5.50049 46.625 5.25049L40.75 0.250488C40.25 -0.124512 39.625 -0.124512 39.125 0.250488L33.25 5.25049C33 5.50049 32.75 5.87549 32.75 6.25049V16.1255H24.75V6.25049C24.75 5.87549 24.625 5.50049 24.25 5.25049L18.375 0.250488C17.875 -0.124512 17.25 -0.124512 16.75 0.250488L10.875 5.25049C10.75 5.50049 10.625 5.87549 10.625 6.25049V16.1255H6.25C5.5 16.1255 5 16.6255 5 17.3755V30.0005C5 30.7505 5.5 31.2505 6.25 31.2505H10.5V46.6255H6.25C5.5 46.6255 5 47.1255 5 47.8755V60.5005C5 61.2505 5.5 61.7505 6.25 61.7505H10.5V66.2505H1.25C0.5 66.2505 0 66.7505 0 67.5005V78.7505C0 79.5005 0.5 80.0005 1.25 80.0005ZM66.875 66.2505H57.625V61.6255H66.875V66.2505ZM47.125 66.2505V61.6255H55.125V66.2505H47.125ZM24.875 66.2505V61.6255H32.875V66.2505H24.875ZM35.375 61.6255H44.625V66.2505H35.375V61.6255ZM66.875 46.5005H57.625V31.2505H66.875V46.5005ZM47.125 46.5005V31.2505H55.125V46.6255H47.125V46.5005ZM24.875 46.5005V31.2505H32.875V46.6255H24.875V46.5005ZM35.375 31.2505H44.625V46.6255H35.375V31.2505ZM57.625 6.75049L62.25 2.87549L66.875 6.75049V16.0005H57.625C57.625 16.1255 57.625 6.75049 57.625 6.75049ZM35.375 6.75049L40 2.87549L44.625 6.75049V16.0005H35.375V6.75049ZM13.125 6.75049L17.75 2.87549L22.375 6.75049V16.0005H13.125C13.125 16.1255 13.125 6.75049 13.125 6.75049ZM7.5 18.6255C35 18.6255 46.375 18.6255 72.375 18.6255V28.7505C52.75 28.7505 27.25 28.7505 7.5 28.7505V18.6255ZM13.125 31.2505H22.375V46.6255H13.125C13.125 46.5005 13.125 31.2505 13.125 31.2505ZM7.5 49.0005C27.125 49.0005 52.75 49.0005 72.375 49.0005V59.1255C52.75 59.1255 27.125 59.1255 7.5 59.1255V49.0005ZM13.125 61.6255H22.375V66.2505H13.125V61.6255ZM2.5 68.7505C26.25 68.7505 53.875 68.7505 77.5 68.7505V77.5005H2.5V68.7505Z" fill="white"/>
</g>
<defs>
<clipPath id="clip0">
<rect width="80" height="80" fill="white"/>
</clipPath>
</defs>
</svg>
