<svg xmlns="http://www.w3.org/2000/svg" x="0px" y="0px"
     width="50" height="50"
     viewBox="0 0 172 172"
     style=" fill:#000000;">
  <g fill="none" fill-rule="nonzero" stroke="none" stroke-width="1" stroke-linecap="butt" stroke-linejoin="miter"
     stroke-miterlimit="10" stroke-dasharray="" stroke-dashoffset="0" font-family="none" font-weight="none"
     font-size="none" text-anchor="none" style="mix-blend-mode: normal">
    <path d="M0,172v-172h172v172z" fill="none"></path>
    <path
      d="M86,172c-47.49649,0 -86,-38.50351 -86,-86v0c0,-47.49649 38.50351,-86 86,-86v0c47.49649,0 86,38.50351 86,86v0c0,47.49649 -38.50351,86 -86,86z"
      fill="#e74c3c"></path>
    <g fill="#ffffff">
      <path
        d="M81.80414,34.4c-2.37188,0 -4.42927,1.60731 -5.00547,3.90695l-1.5218,6.05359c-3.91472,1.00448 -7.66193,2.5567 -11.13633,4.62586l-5.3582,-3.21492c-2.03304,-1.21776 -4.62683,-0.90098 -6.30555,0.77602l-5.93266,5.93266c-1.67872,1.677 -1.99722,4.26743 -0.77602,6.30219l3.20484,5.35484c-2.05712,3.47784 -3.60818,7.22825 -4.60234,11.14641l-6.06367,1.51508c-2.29964,0.5762 -3.90695,2.63695 -3.90695,5.00883v8.38836c0,2.37188 1.60731,4.42927 3.90695,5.00547l6.05359,1.5218c1.00448,3.91472 2.5567,7.66193 4.62586,11.13633l-3.21492,5.3582c-1.21948,2.03304 -0.90098,4.62683 0.77602,6.30555l5.93266,5.93266c1.677,1.67872 4.26743,1.9955 6.30219,0.77602l5.35484,-3.20484c3.47784,2.05712 7.22653,3.60818 11.14641,4.60234l1.51508,6.06367c0.57448,2.29792 2.63523,3.90695 5.00883,3.90695h8.38836c2.37188,0 4.42927,-1.60731 5.00547,-3.90695l1.5218,-6.0536c3.91472,-1.00448 7.66193,-2.5567 11.13633,-4.62586l5.3582,3.21492c2.03132,1.21948 4.62683,0.90098 6.30555,-0.77602l5.93266,-5.93266c1.67872,-1.677 1.99722,-4.26743 0.77602,-6.30219l-3.20484,-5.35484c2.05712,-3.47784 3.60818,-7.22825 4.60234,-11.14641l6.06367,-1.51508c2.29792,-0.5762 3.90695,-2.63523 3.90695,-5.00883v-8.38836c0,-2.37016 -1.60559,-4.43099 -3.90695,-5.00547l-6.0536,-1.51844c-1.00448,-3.91472 -2.5567,-7.66193 -4.62586,-11.13633l3.21492,-5.36156c1.21948,-2.03304 0.90098,-4.62347 -0.77602,-6.30219l-5.93266,-5.93266c-1.67872,-1.67872 -4.27087,-1.9955 -6.30219,-0.77602l-5.35484,3.20484c-3.47784,-2.05712 -7.22825,-3.61154 -11.14641,-4.6057l-1.51508,-6.06367c-0.5762,-2.29964 -2.63523,-3.90695 -5.00883,-3.90695zM81.8075,37.84h8.38836c0.7912,0 1.47533,0.53632 1.66625,1.30344l1.51508,6.06031c0.30444,1.21776 1.25778,2.17282 2.4893,2.4893c3.59824,0.92364 7.04525,2.35089 10.24273,4.24289c1.09048,0.64672 2.44047,0.64672 3.52062,0l5.3582,-3.21492c0.67768,-0.40936 1.54061,-0.29861 2.09961,0.25867l5.93266,5.93266c0.559,0.559 0.66631,1.42193 0.25867,2.09961l-3.21492,5.36156c-0.645,1.07672 -0.645,2.42343 0,3.51391c1.892,3.19748 3.31925,6.64613 4.24289,10.24609c0.31648,1.2298 1.26818,2.18486 2.48594,2.4893l6.06367,1.51508c0.76712,0.19092 1.30008,0.87505 1.30008,1.66625v8.38836h0.00336c0,0.7912 -0.53632,1.47869 -1.30344,1.66961l-6.06031,1.51508c-1.21776,0.30444 -2.17282,1.25442 -2.4893,2.48594c-0.92364,3.59824 -2.35089,7.04861 -4.24289,10.24609c-0.64672,1.0922 -0.64672,2.43711 0,3.51727l3.21492,5.36156c0.40592,0.67768 0.30033,1.54061 -0.25867,2.09961l-5.93266,5.93266c-0.56072,0.55728 -1.42365,0.66459 -2.09961,0.25867l-5.36156,-3.21828c-1.07672,-0.645 -2.42343,-0.645 -3.51391,0c-3.19748,1.892 -6.64785,3.31925 -10.24609,4.24289c-1.2298,0.31648 -2.18314,1.26982 -2.4893,2.4893l-1.51508,6.06031c-0.19264,0.76884 -0.87841,1.3068 -1.66961,1.3068h-8.38836c-0.7912,0 -1.47533,-0.53632 -1.66625,-1.30344l-1.51508,-6.06367c-0.30616,-1.21776 -1.2595,-2.17118 -2.4893,-2.48594c-3.59824,-0.92364 -7.04861,-2.35089 -10.24609,-4.24289c-0.54524,-0.32336 -1.15479,-0.48375 -1.76367,-0.48375c-0.60888,0 -1.21351,0.16039 -1.75359,0.48375l-5.36156,3.21828c-0.6794,0.40592 -1.54061,0.29861 -2.09961,-0.25867l-5.93266,-5.93266c-0.559,-0.559 -0.66631,-1.42193 -0.25867,-2.09961l3.21828,-5.36156c0.645,-1.07672 0.645,-2.42679 0,-3.51727c-1.892,-3.19748 -3.31925,-6.64613 -4.24289,-10.24609c-0.31648,-1.2298 -1.27154,-2.1815 -2.4893,-2.48594l-6.06031,-1.51508c-0.7654,-0.19436 -1.30344,-0.88177 -1.30344,-1.67297v-8.38836c0,-0.7912 0.53804,-1.47533 1.30344,-1.66625l6.06031,-1.51508c1.21776,-0.30444 2.17282,-1.25778 2.4893,-2.4893c0.92364,-3.59824 2.35089,-7.04525 4.24289,-10.24273c0.64672,-1.0922 0.64672,-2.44046 0,-3.52062l-3.21828,-5.3582c-0.40592,-0.67768 -0.30033,-1.54061 0.25867,-2.09961l5.93266,-5.93266c0.559,-0.55728 1.42365,-0.66975 2.09961,-0.25867l5.36156,3.21492c1.07844,0.64672 2.42851,0.645 3.51727,0c3.19748,-1.892 6.64613,-3.31925 10.24609,-4.24289c1.2298,-0.31648 2.1815,-1.26818 2.48594,-2.48594l1.51508,-6.06367c0.19436,-0.76712 0.88177,-1.30344 1.67297,-1.30344zM86,49.88c-0.94944,0 -1.72,0.77056 -1.72,1.72v3.44c0,0.94944 0.77056,1.72 1.72,1.72c0.94944,0 1.72,-0.77056 1.72,-1.72v-3.44c0,-0.94944 -0.77056,-1.72 -1.72,-1.72zM77.32945,51.06586c-0.22129,-0.03061 -0.45276,-0.01911 -0.68195,0.04367c-0.91848,0.24596 -1.46205,1.18785 -1.21609,2.10633l0.89359,3.32242c0.2064,0.76884 0.89929,1.27656 1.65953,1.27656c0.1462,0 0.29888,-0.01919 0.4468,-0.06047c0.91848,-0.24596 1.46206,-1.18785 1.2161,-2.10633l-0.8936,-3.32242c-0.18447,-0.68757 -0.76051,-1.16793 -1.42437,-1.25977zM94.66719,51.06586c-0.66411,0.09207 -1.2399,0.5722 -1.42437,1.25977l-0.8936,3.32242c-0.24424,0.91848 0.30097,1.86037 1.21945,2.10633c0.14964,0.03956 0.29724,0.06047 0.44344,0.06047c0.75852,0 1.45485,-0.50772 1.65953,-1.27656l0.89359,-3.32242c0.24596,-0.91676 -0.29761,-1.86037 -1.21609,-2.10633c-0.22962,-0.06235 -0.46058,-0.07436 -0.68195,-0.04367zM68.585,54.5025c-0.22164,0.02768 -0.43989,0.09925 -0.645,0.21836c-0.82388,0.47472 -1.10292,1.52604 -0.6282,2.3482l1.72,2.97976c0.31992,0.55212 0.89644,0.86 1.49156,0.86c0.29068,0 0.5866,-0.07528 0.85664,-0.2318c0.82388,-0.47472 1.10292,-1.52604 0.6282,-2.3482l-1.72,-2.97976c-0.35604,-0.61791 -1.03829,-0.92961 -1.7032,-0.84656zM103.41164,54.5025c-0.66516,-0.08264 -1.3438,0.22994 -1.69984,0.84656l-1.72,2.97976c-0.47472,0.82216 -0.19568,1.87176 0.6282,2.3482c0.27004,0.15652 0.56596,0.2318 0.85664,0.2318c0.59512,0 1.17336,-0.30788 1.49156,-0.86l1.72,-2.97976c0.47472,-0.82216 0.19396,-1.87348 -0.6282,-2.3482c-0.20554,-0.11911 -0.42664,-0.19081 -0.64836,-0.21836zM80.84,61.92c-0.94944,0 -1.72,0.77056 -1.72,1.72v23.36781l-3.94391,-3.94391c-0.67252,-0.67252 -1.75967,-0.67252 -2.43219,0l-6.88,6.88c-0.67252,0.67252 -0.67252,1.75967 0,2.43219l18.92,18.92c0.3354,0.3354 0.77577,0.50391 1.21609,0.50391c0.44032,0 0.88069,-0.16851 1.21609,-0.50391l18.92,-18.92c0.67252,-0.67252 0.67252,-1.75967 0,-2.43219l-6.88,-6.88c-0.67252,-0.67252 -1.75967,-0.67252 -2.43219,0l-3.94391,3.94391v-23.36781c0,-0.94944 -0.77056,-1.72 -1.72,-1.72zM82.56,65.36h6.88v25.8c0,0.69488 0.42,1.32238 1.06156,1.58898c0.64156,0.26488 1.38089,0.12075 1.87453,-0.37289l5.66391,-5.66391l4.44781,4.44781l-16.48781,16.48781l-16.48781,-16.48781l4.44781,-4.44781l5.66391,5.66391c0.49192,0.49364 1.22781,0.63777 1.87453,0.37289c0.64156,-0.2666 1.06156,-0.8941 1.06156,-1.58898zM101.265,111.10125c-0.22142,0.02776 -0.44032,0.10218 -0.645,0.22172c-0.82388,0.47472 -1.10292,1.52604 -0.6282,2.3482l1.72,2.97976c0.31992,0.55212 0.89644,0.86 1.49156,0.86c0.29068,0 0.5866,-0.07528 0.85664,-0.2318c0.82388,-0.47472 1.10292,-1.52604 0.6282,-2.3482l-1.72,-2.97976c-0.35733,-0.61791 -1.03893,-0.93321 -1.7032,-0.84992zM70.73164,111.10461c-0.6658,-0.08264 -1.34509,0.22994 -1.69984,0.84656l-1.72,2.97976c-0.47472,0.82216 -0.19396,1.87348 0.6282,2.3482c0.27004,0.15652 0.56596,0.2318 0.85664,0.2318c0.59512,0 1.17336,-0.30788 1.49156,-0.86l1.72,-2.97976c0.47472,-0.82216 0.19568,-1.87176 -0.6282,-2.3482c-0.20597,-0.11911 -0.42643,-0.19081 -0.64836,-0.21836zM77.74938,114.19859c-0.66435,0.09207 -1.23991,0.57555 -1.42437,1.26312l-0.89023,3.32242c-0.24596,0.91676 0.29761,1.86037 1.21609,2.10633c0.14964,0.03956 0.29724,0.06047 0.44344,0.06047c0.75852,0 1.45485,-0.50772 1.65953,-1.27656l0.8936,-3.32242c0.24768,-0.91848 -0.29762,-1.86037 -1.2161,-2.10633c-0.23005,-0.06235 -0.4605,-0.07772 -0.68195,-0.04703zM94.25063,114.19859c-0.22137,-0.03056 -0.45233,-0.01532 -0.68195,0.04703c-0.91848,0.24596 -1.46206,1.18785 -1.2161,2.10633l0.89024,3.32242c0.2064,0.76884 0.89929,1.27656 1.65953,1.27656c0.1462,0 0.29888,-0.01919 0.4468,-0.06047c0.91848,-0.24596 1.46205,-1.18785 1.21609,-2.10633l-0.89023,-3.32242c-0.18447,-0.68886 -0.76027,-1.17145 -1.42437,-1.26312zM86,115.24c-0.94944,0 -1.72,0.77056 -1.72,1.72v3.44c0,0.94944 0.77056,1.72 1.72,1.72c0.94944,0 1.72,-0.77056 1.72,-1.72v-3.44c0,-0.94944 -0.77056,-1.72 -1.72,-1.72z"></path>
    </g>
  </g>
</svg>
