<svg xmlns="http://www.w3.org/2000/svg" x="0px" y="0px"
     width="50" height="50"
     viewBox="0 0 172 172"
     style=" fill:#000000;">
  <g fill="none" fill-rule="nonzero" stroke="none" stroke-width="1" stroke-linecap="butt" stroke-linejoin="miter"
     stroke-miterlimit="10" stroke-dasharray="" stroke-dashoffset="0" font-family="none" font-weight="none"
     font-size="none" text-anchor="none" style="mix-blend-mode: normal">
    <path d="M0,172v-172h172v172z" fill="none"></path>
    <path
      d="M86,172c-47.49649,0 -86,-38.50351 -86,-86v0c0,-47.49649 38.50351,-86 86,-86v0c47.49649,0 86,38.50351 86,86v0c0,47.49649 -38.50351,86 -86,86z"
      fill="#1abc9c"></path>
    <g fill="#ffffff">
      <path
        d="M59.54654,33.13206c-1.21421,0.01898 -2.18382,1.01744 -2.16719,2.23169v2.20159v4.40318h4.40318v-4.40318v-2.20159c0.00815,-0.59509 -0.22495,-1.16813 -0.64619,-1.58856c-0.42124,-0.42043 -0.99473,-0.65242 -1.5898,-0.64313zM72.75607,33.13206c-1.21421,0.01898 -2.18382,1.01744 -2.16719,2.23169v2.20159v4.40318h4.40318v-4.40318v-2.20159c0.00815,-0.59509 -0.22495,-1.16813 -0.64619,-1.58856c-0.42124,-0.42043 -0.99473,-0.65242 -1.5898,-0.64313zM85.9656,33.13206c-1.21421,0.01898 -2.18382,1.01744 -2.16719,2.23169v2.20159v4.40318h4.40318v-4.40318v-2.20159c0.00815,-0.59509 -0.22495,-1.16813 -0.64619,-1.58856c-0.42124,-0.42043 -0.99473,-0.65242 -1.5898,-0.64313zM99.17513,33.13206c-1.21421,0.01898 -2.18382,1.01744 -2.16719,2.23169v2.20159v4.40318h4.40318v-4.40318v-2.20159c0.00815,-0.59509 -0.22495,-1.16813 -0.64619,-1.58856c-0.42124,-0.42043 -0.99473,-0.65242 -1.5898,-0.64313zM112.38466,33.13206c-1.21421,0.01898 -2.18382,1.01744 -2.16719,2.23169v2.20159v4.40318h4.40318v-4.40318v-2.20159c0.00815,-0.59509 -0.22495,-1.16813 -0.64619,-1.58856c-0.42124,-0.42043 -0.99473,-0.65242 -1.5898,-0.64313zM50.77459,44.1701c-3.62155,0 -6.60477,2.98322 -6.60477,6.60477v70.45083c0,3.62155 2.98322,6.60477 6.60477,6.60477h70.45083c3.62155,0 6.60477,-2.98322 6.60477,-6.60477v-70.45083c0,-3.62155 -2.98322,-6.60477 -6.60477,-6.60477zM50.77459,48.57327h70.45083c1.24396,0 2.20159,0.95762 2.20159,2.20159v70.45083c0,1.24396 -0.95762,2.20159 -2.20159,2.20159h-70.45083c-1.24396,0 -2.20159,-0.95762 -2.20159,-2.20159v-70.45083c0,-1.24396 0.95762,-2.20159 2.20159,-2.20159zM35.36347,57.37963c-0.79397,-0.01123 -1.53248,0.40592 -1.93275,1.09171c-0.40026,0.68579 -0.40026,1.53397 0,2.21976c0.40026,0.68579 1.13878,1.10294 1.93275,1.09171h2.20159h4.40318v-4.40318h-4.40318zM130.03177,57.37963v4.40318h4.40318h2.20159c0.79397,0.01123 1.53248,-0.40592 1.93275,-1.09171c0.40026,-0.68579 0.40026,-1.53397 0,-2.21976c-0.40026,-0.68579 -1.13878,-1.10294 -1.93275,-1.09171h-2.20159zM66.1857,68.38757c-1.21585,0.00012 -2.20147,0.98574 -2.20159,2.20159v30.82224c0.00012,1.21585 0.98574,2.20147 2.20159,2.20159h39.62859c1.21585,-0.00012 2.20147,-0.98574 2.20159,-2.20159v-30.82224c-0.00012,-1.21585 -0.98574,-2.20147 -2.20159,-2.20159zM35.36347,70.58916c-0.79397,-0.01123 -1.53248,0.40592 -1.93275,1.09171c-0.40026,0.68579 -0.40026,1.53397 0,2.21976c0.40026,0.68579 1.13878,1.10294 1.93275,1.09171h2.20159h4.40318v-4.40318h-4.40318zM130.03177,70.58916v4.40318h4.40318h2.20159c0.79397,0.01123 1.53248,-0.40592 1.93275,-1.09171c0.40026,-0.68579 0.40026,-1.53397 0,-2.21976c-0.40026,-0.68579 -1.13878,-1.10294 -1.93275,-1.09171h-2.20159zM68.38729,72.79075h35.22541v26.41906h-35.22541zM35.36347,83.79869c-0.79397,-0.01123 -1.53248,0.40592 -1.93275,1.09171c-0.40026,0.68579 -0.40026,1.53397 0,2.21976c0.40026,0.68579 1.13878,1.10294 1.93275,1.09171h2.20159h4.40318v-4.40318h-4.40318zM130.03177,83.79869v4.40318h4.40318h2.20159c0.79397,0.01123 1.53248,-0.40592 1.93275,-1.09171c0.40026,-0.68579 0.40026,-1.53397 0,-2.21976c-0.40026,-0.68579 -1.13878,-1.10294 -1.93275,-1.09171h-2.20159zM35.36347,97.00822c-0.79397,-0.01123 -1.53248,0.40592 -1.93275,1.09171c-0.40026,0.68579 -0.40026,1.53397 0,2.21976c0.40026,0.68579 1.13878,1.10294 1.93275,1.09171h2.20159h4.40318v-4.40318h-4.40318zM130.03177,97.00822v4.40318h4.40318h2.20159c0.79397,0.01123 1.53248,-0.40592 1.93275,-1.09171c0.40026,-0.68579 0.40026,-1.53397 0,-2.21976c-0.40026,-0.68579 -1.13878,-1.10294 -1.93275,-1.09171h-2.20159zM35.36347,110.21775c-0.79397,-0.01123 -1.53248,0.40592 -1.93275,1.09171c-0.40026,0.68579 -0.40026,1.53397 0,2.21976c0.40026,0.68579 1.13878,1.10294 1.93275,1.09171h2.20159h4.40318v-4.40318h-4.40318zM130.03177,110.21775v4.40318h4.40318h2.20159c0.79397,0.01123 1.53248,-0.40592 1.93275,-1.09171c0.40026,-0.68579 0.40026,-1.53397 0,-2.21976c-0.40026,-0.68579 -1.13878,-1.10294 -1.93275,-1.09171h-2.20159zM57.37935,130.03205v4.40318v2.20159c-0.01123,0.79397 0.40592,1.53248 1.09171,1.93275c0.68579,0.40026 1.53397,0.40026 2.21976,0c0.68579,-0.40026 1.10294,-1.13878 1.09171,-1.93275v-2.20159v-4.40318zM70.58888,130.03205v4.40318v2.20159c-0.01123,0.79397 0.40592,1.53248 1.09171,1.93275c0.68579,0.40026 1.53397,0.40026 2.21976,0c0.68579,-0.40026 1.10294,-1.13878 1.09171,-1.93275v-2.20159v-4.40318zM83.79841,130.03205v4.40318v2.20159c-0.01123,0.79397 0.40592,1.53248 1.09171,1.93275c0.68579,0.40026 1.53397,0.40026 2.21976,0c0.68579,-0.40026 1.10294,-1.13878 1.09171,-1.93275v-2.20159v-4.40318zM97.00794,130.03205v4.40318v2.20159c-0.01123,0.79397 0.40592,1.53248 1.09171,1.93275c0.68579,0.40026 1.53397,0.40026 2.21976,0c0.68579,-0.40026 1.10294,-1.13878 1.09171,-1.93275v-2.20159v-4.40318zM110.21747,130.03205v4.40318v2.20159c-0.01123,0.79397 0.40592,1.53248 1.09171,1.93275c0.68579,0.40026 1.53397,0.40026 2.21976,0c0.68579,-0.40026 1.10294,-1.13878 1.09171,-1.93275v-2.20159v-4.40318z"></path>
    </g>
  </g>
</svg>
