<svg xmlns="http://www.w3.org/2000/svg" x="0px" y="0px"
     width="50" height="50"
     viewBox="0 0 172 172"
     style=" fill:#000000;">
  <g fill="none" fill-rule="nonzero" stroke="none" stroke-width="1" stroke-linecap="butt" stroke-linejoin="miter"
     stroke-miterlimit="10" stroke-dasharray="" stroke-dashoffset="0" font-family="none" font-weight="none"
     font-size="none" text-anchor="none" style="mix-blend-mode: normal">
    <path d="M0,172v-172h172v172z" fill="none"></path>
    <path
      d="M86,172c-47.49649,0 -86,-38.50351 -86,-86v0c0,-47.49649 38.50351,-86 86,-86v0c47.49649,0 86,38.50351 86,86v0c0,47.49649 -38.50351,86 -86,86z"
      fill="#f1c40f"></path>
    <g fill="#ffffff">
      <path
        d="M86,35.1869c-28.03713,0 -50.8131,22.77597 -50.8131,50.8131c0,28.03713 22.77597,50.8131 50.8131,50.8131c28.03713,0 50.8131,-22.77597 50.8131,-50.8131c0,-28.03713 -22.77597,-50.8131 -50.8131,-50.8131zM83.7984,39.8481v21.8698c-5.65259,-0.1334 -11.02683,-0.76545 -15.9831,-1.8017c0.8727,-2.64378 1.86447,-5.10063 2.967,-7.3057c3.6391,-7.2782 8.25467,-11.70796 13.0161,-12.7624zM88.2016,39.8481c4.76143,1.05444 9.377,5.4842 13.0161,12.7624c1.10606,2.21211 2.10092,4.67801 2.9756,7.3315c-4.95008,1.02589 -10.33161,1.64529 -15.9917,1.7759zM73.1688,41.3961c-2.3896,2.50333 -4.52041,5.63522 -6.3253,9.245c-1.25783,2.51566 -2.36113,5.29101 -3.3239,8.2517c-4.32202,-1.16513 -8.23063,-2.63122 -11.6057,-4.3344c5.67996,-6.15575 12.97512,-10.78947 21.2549,-13.1623zM98.8312,41.3961c8.27177,2.37054 15.56005,6.99829 21.2377,13.1451c-3.32521,1.73427 -7.22948,3.21689 -11.5756,4.386c-0.96528,-2.97374 -2.07409,-5.76069 -3.3368,-8.2861c-1.80489,-3.60978 -3.9357,-6.74167 -6.3253,-9.245zM122.9499,57.9812c5.49765,7.24286 8.95256,16.12255 9.4041,25.8172h-19.9047c-0.16069,-7.39144 -1.1054,-14.37019 -2.7219,-20.6228c4.93999,-1.33642 9.39251,-3.08764 13.2225,-5.1944zM49.0243,58.0156c3.87142,2.05561 8.33135,3.78615 13.2569,5.1213c-1.62242,6.26231 -2.56949,13.25511 -2.7305,20.6615h-19.9047c0.45083,-9.67937 3.89586,-18.54611 9.3783,-25.7828zM66.5726,64.1732c5.35505,1.13942 11.1431,1.81798 17.2258,1.9522v17.673h-19.8445c0.16379,-7.07293 1.0885,-13.73298 2.6187,-19.6252zM105.436,64.2033c1.52563,5.88486 2.44659,12.53412 2.6101,19.5951h-19.8445v-17.673c6.08623,-0.13047 11.88088,-0.79342 17.2344,-1.9221zM39.646,88.2016h19.9047c0.16069,7.39144 1.1054,14.37019 2.7219,20.6228c-4.93999,1.33642 -9.39251,3.08764 -13.2225,5.1944c-5.49765,-7.24286 -8.95256,-16.12255 -9.4041,-25.8172zM63.9539,88.2016h19.8445v17.673c-6.08623,0.13047 -11.88088,0.79342 -17.2344,1.9221c-1.52563,-5.88486 -2.44659,-12.53412 -2.6101,-19.5951zM88.2016,88.2016h19.8445c-0.16379,7.07293 -1.0885,13.73298 -2.6187,19.6252c-5.35505,-1.13942 -11.1431,-1.81798 -17.2258,-1.9522zM112.4493,88.2016h19.9047c-0.45083,9.67937 -3.89587,18.54611 -9.3783,25.7828c-3.87142,-2.05561 -8.33135,-3.78615 -13.2569,-5.1213c1.62242,-6.26231 2.56949,-13.25511 2.7305,-20.6615zM83.7984,110.2821v21.8698c-4.76143,-1.05444 -9.377,-5.4842 -13.0161,-12.7624c-1.10606,-2.21211 -2.10092,-4.67801 -2.9756,-7.3315c4.95008,-1.02589 10.33161,-1.64529 15.9917,-1.7759zM88.2016,110.2821c5.65259,0.1334 11.02683,0.76545 15.9831,1.8017c-0.8727,2.64378 -1.86447,5.10063 -2.967,7.3057c-3.6391,7.2782 -8.25467,11.70796 -13.0161,12.7624zM63.5067,113.0728c0.96528,2.97374 2.07409,5.76069 3.3368,8.2861c1.80489,3.60979 3.9357,6.74167 6.3253,9.245c-8.27177,-2.37054 -15.56005,-6.99829 -21.2377,-13.1451c3.32521,-1.73427 7.22949,-3.21689 11.5756,-4.386zM108.4804,113.1072c4.32202,1.16513 8.23063,2.63122 11.6057,4.3344c-5.67996,6.15575 -12.97512,10.78947 -21.2549,13.1623c2.3896,-2.50333 4.52041,-5.63522 6.3253,-9.245c1.25783,-2.51566 2.36113,-5.29101 3.3239,-8.2517z"></path>
    </g>
    <path
      d="M86,172c-47.49649,0 -86,-38.50351 -86,-86v0c0,-47.49649 38.50351,-86 86,-86v0c47.49649,0 86,38.50351 86,86v0c0,47.49649 -38.50351,86 -86,86z"
      fill="none"></path>
    <path
      d="M86,168.56c-45.59663,0 -82.56,-36.96337 -82.56,-82.56v0c0,-45.59663 36.96337,-82.56 82.56,-82.56v0c45.59663,0 82.56,36.96337 82.56,82.56v0c0,45.59663 -36.96337,82.56 -82.56,82.56z"
      fill="none"></path>
  </g>
</svg>
