<svg width="80" height="80" viewBox="0 0 80 80" fill="none" xmlns="http://www.w3.org/2000/svg">
<path d="M40.0663 78.4135C61.2449 78.4135 78.4135 61.2449 78.4135 40.0663C78.4135 18.8878 61.2449 1.71924 40.0663 1.71924C18.8878 1.71924 1.71924 18.8878 1.71924 40.0663C1.71924 61.2449 18.8878 78.4135 40.0663 78.4135Z" stroke="white" stroke-width="2.5" stroke-linecap="round" stroke-linejoin="round"/>
<path d="M9.65332 37.4215C10.9756 22.7438 22.612 11.1075 37.2897 9.78516" stroke="white" stroke-width="2.5" stroke-linecap="round" stroke-linejoin="round"/>
<path d="M15.0747 37.4213C16.397 25.6527 25.6532 16.3965 37.4218 15.0742" stroke="white" stroke-width="2.5" stroke-linecap="round" stroke-linejoin="round"/>
<path d="M20.3638 37.2893C21.5539 28.4298 28.5621 21.4215 37.4216 20.2314" stroke="white" stroke-width="2.5" stroke-linecap="round" stroke-linejoin="round"/>
<path d="M70.4795 37.2892C69.1572 22.4793 57.5209 10.8429 42.7109 9.65283" stroke="white" stroke-width="2.5" stroke-linecap="round" stroke-linejoin="round"/>
<path d="M65.058 37.2895C63.7357 25.5209 54.4795 16.2647 42.7109 14.9424" stroke="white" stroke-width="2.5" stroke-linecap="round" stroke-linejoin="round"/>
<path d="M59.7688 37.2893C58.5787 28.4298 51.5704 21.4215 42.7109 20.2314" stroke="white" stroke-width="2.5" stroke-linecap="round" stroke-linejoin="round"/>
<path d="M9.65332 42.7109C10.9756 57.3886 22.612 69.025 37.2897 70.3473" stroke="white" stroke-width="2.5" stroke-linecap="round" stroke-linejoin="round"/>
<path d="M15.0747 42.7109C16.397 54.4795 25.6532 63.7357 37.4218 65.058" stroke="white" stroke-width="2.5" stroke-linecap="round" stroke-linejoin="round"/>
<path d="M20.3638 42.7109C21.5539 51.5704 28.5621 58.5787 37.4216 59.7688" stroke="white" stroke-width="2.5" stroke-linecap="round" stroke-linejoin="round"/>
<path d="M70.4796 42.7109C69.1573 57.3886 57.5209 69.025 42.8433 70.3473" stroke="white" stroke-width="2.5" stroke-linecap="round" stroke-linejoin="round"/>
<path d="M65.058 42.7109C63.7357 54.4795 54.4795 63.7357 42.7109 65.058" stroke="white" stroke-width="2.5" stroke-linecap="round" stroke-linejoin="round"/>
<path d="M59.7688 42.7109C58.5787 51.5704 51.5704 58.5787 42.7109 59.7688" stroke="white" stroke-width="2.5" stroke-linecap="round" stroke-linejoin="round"/>
<path d="M47.3373 42.5783C47.3373 46.6775 44.0315 49.9832 39.9323 49.9832C35.8331 49.9832 32.5273 46.6775 32.5273 42.5783C32.5273 39.9337 33.8497 37.5535 36.0976 36.2312C36.2298 38.0824 37.2877 39.9337 39.0067 40.8593C37.9488 39.2725 37.4199 37.5535 37.4199 35.7023C37.4199 35.7023 37.4199 35.7023 37.4199 35.57C37.4199 32.132 39.2711 29.0907 42.3125 27.5039C42.048 28.2973 41.9158 29.0907 41.9158 29.8841C41.9158 30.0163 41.9158 30.1485 41.9158 30.2808C41.9158 32.7932 42.8414 35.1733 44.6926 36.8923C45.486 37.5535 46.1472 38.4791 46.6761 39.4047C47.205 40.3304 47.3373 41.3882 47.3373 42.5783Z" stroke="white" stroke-width="2.5" stroke-linecap="round" stroke-linejoin="round"/>
</svg>
