<svg width="80" height="80" viewBox="0 0 80 80" fill="none" xmlns="http://www.w3.org/2000/svg">
<path d="M32.9016 57.8004C33.1016 58.0004 33.4016 58.1004 33.6016 58.1004H35.3016L34.2016 65.2004C34.1016 65.6004 34.4016 66.0004 34.7016 66.2004C34.8016 66.3004 35.0016 66.3004 35.2016 66.3004C35.5016 66.3004 35.7016 66.2004 35.9016 66.0004L47.1016 55.1004C47.4016 54.8004 47.5016 54.4004 47.3016 54.0004C47.1016 53.6004 46.8016 53.4004 46.4016 53.4004H42.7016L45.3016 47.2004C45.4016 46.9004 45.4016 46.5004 45.2016 46.3004C45.0016 46.0004 44.7016 45.9004 44.4016 45.9004H34.8016C34.3016 45.9004 33.9016 46.3004 33.8016 46.8004L32.6016 57.0004C32.6016 57.3004 32.7016 57.6004 32.9016 57.8004ZM35.7016 47.9004H42.9016L40.3016 54.1004C40.2016 54.4004 40.2016 54.8004 40.4016 55.0004C40.6016 55.2004 40.9016 55.4004 41.2016 55.4004H44.0016L36.7016 62.5004L37.5016 57.2004C37.5016 56.9004 37.5016 56.6004 37.3016 56.4004C37.1016 56.2004 36.8016 56.1004 36.5016 56.1004H34.8016L35.7016 47.9004Z" fill="white"/>
<path d="M79 31.7H69.9V27.5H72.9C73.2 27.5 73.5 27.3 73.7 27.1C73.9 26.8 73.9 26.5 73.8 26.2L72 20.7H72.9C73.2 20.7 73.5 20.5 73.7 20.3C73.9 20 73.9 19.7 73.8 19.4L72 13.9H72.9C73.2 13.9 73.5 13.7 73.7 13.5C73.9 13.2 73.9 12.9 73.8 12.6L71.5 5.8C71.4 5.4 71 5.1 70.6 5.1H67.8V1C67.8 0.4 67.4 0 66.8 0H61.5C60.9 0 60.5 0.4 60.5 1V5.1H57.7C57.3 5.1 56.9 5.4 56.8 5.8L54.5 12.6C54.4 12.9 54.4 13.2 54.6 13.5C54.8 13.8 55.1 13.9 55.4 13.9H56.3L54.4 19.4C54.3 19.7 54.3 20 54.5 20.3C54.7 20.6 55 20.7 55.3 20.7H56.2L54.3 26.2C54.2 26.5 54.2 26.8 54.4 27.1C54.6 27.4 54.9 27.5 55.2 27.5H58.2V31.7H45.8V27.5H48.8C49.1 27.5 49.4 27.3 49.6 27.1C49.8 26.8 49.8 26.5 49.7 26.2L47.8 20.7H48.7C49 20.7 49.3 20.5 49.5 20.3C49.7 20 49.7 19.7 49.6 19.4L47.7 13.9H48.6C48.9 13.9 49.2 13.7 49.4 13.5C49.6 13.2 49.6 12.9 49.5 12.6L47.2 5.8C47.1 5.4 46.7 5.1 46.3 5.1H43.5V1C43.5 0.4 43.1 0 42.5 0H37.2C36.6 0 36.2 0.4 36.2 1V5.1H33.4C33 5.1 32.6 5.4 32.5 5.8L30.2 12.6C30.1 12.9 30.1 13.2 30.3 13.5C30.5 13.8 30.8 13.9 31.1 13.9H32L30.1 19.4C30 19.7 30 20 30.2 20.3C30.4 20.6 30.7 20.7 31 20.7H31.9L30 26.2C29.9 26.5 29.9 26.8 30.1 27.1C30.3 27.4 30.6 27.5 30.9 27.5H33.9V31.7H21.7V27.5H24.7C25 27.5 25.3 27.3 25.5 27.1C25.7 26.8 25.7 26.5 25.6 26.2L23.7 20.7H24.6C24.9 20.7 25.2 20.5 25.4 20.3C25.6 20 25.6 19.7 25.5 19.4L23.6 13.9H24.5C24.8 13.9 25.1 13.7 25.3 13.5C25.5 13.2 25.5 12.9 25.4 12.6L23.1 5.8C23 5.4 22.6 5.1 22.2 5.1H19.4V1C19.4 0.4 19 0 18.4 0H13.1C12.5 0 12.1 0.4 12.1 1V5.1H9.4C9 5.1 8.6 5.3 8.5 5.8L6.2 12.6C6.1 12.9 6.1 13.2 6.3 13.5C6.5 13.8 6.8 13.9 7.1 13.9H8L6.1 19.4C6 19.7 6 20 6.2 20.3C6.4 20.6 6.7 20.7 7 20.7H8L6.1 26.2C6 26.5 6 26.8 6.2 27.1C6.4 27.4 6.7 27.5 7 27.5H10V31.7H1C0.4 31.7 0 32.1 0 32.7V40.4C0 41 0.4 41.4 1 41.4H2V70.3H1C0.4 70.3 0 70.7 0 71.3V79C0 79.6 0.4 80 1 80H79C79.6 80 80 79.6 80 79V71.3C80 70.7 79.6 70.3 79 70.3H78V41.4H79C79.6 41.4 80 41 80 40.4V32.7C80 32.1 79.6 31.7 79 31.7ZM62.4 2H65.7V5.1H62.4V2ZM58.3 7.1H69.8L71.4 11.9H70.5H57.6H56.7L58.3 7.1ZM69.9 13.9L71.5 18.7H70.6H57.6H56.7L58.3 13.9H69.9ZM58.3 20.7H69.8L71.4 25.5H56.7L58.3 20.7ZM60.3 27.5H67.8V31.7H60.3V27.5ZM38.3 2H41.6V5.1H38.3V2ZM34.2 7.1H45.7L47.3 11.9H46.4H33.5H32.6L34.2 7.1ZM45.8 13.9L47.4 18.7H46.5H33.5H32.6L34.2 13.9H45.8ZM34.2 20.7H45.7L47.3 25.5H32.6L34.2 20.7ZM36.2 27.5H43.7V31.7H36.2V27.5ZM14.2 2H17.5V5.1H14.2V2ZM10.1 7.1H21.6L23.2 11.9H22.3H9.4H8.5L10.1 7.1ZM21.7 13.9L23.3 18.7H22.4H9.4H8.5L10.1 13.9H21.7ZM10.1 20.7H21.6L23.2 25.5H8.5L10.1 20.7ZM12.1 27.5H19.6V31.7H12.1V27.5ZM78 78H2V72.3H78V78ZM76 70.3H4V41.4H76V70.3ZM78 39.4H2V33.7H78V39.4Z" fill="white"/>
</svg>
